<svg width="28" height="28" viewBox="0 0 28 28" fill="none" xmlns="http://www.w3.org/2000/svg">
<path d="M6.9974 11.0835C6.9974 7.53967 9.87024 4.66683 13.4141 4.66683C16.5532 4.66683 19.1681 6.92221 19.7223 9.90129C19.8 10.319 20.0987 10.6615 20.502 10.7953C22.8245 11.5656 24.4974 13.7557 24.4974 16.3335C24.4974 19.5552 21.8857 22.1668 18.6641 22.1668C18.0197 22.1668 17.4974 22.6892 17.4974 23.3335C17.4974 23.9778 18.0197 24.5002 18.6641 24.5002C23.1744 24.5002 26.8307 20.8438 26.8307 16.3335C26.8307 12.959 24.7847 10.065 21.8681 8.81967C20.8701 5.0845 17.4644 2.3335 13.4141 2.3335C8.58157 2.3335 4.66406 6.251 4.66406 11.0835C4.66406 11.2005 4.66637 11.317 4.67093 11.433C2.57629 12.6415 1.16406 14.9048 1.16406 17.5002C1.16406 21.3662 4.29807 24.5002 8.16406 24.5002C8.8084 24.5002 9.33073 23.9778 9.33073 23.3335C9.33073 22.6892 8.8084 22.1668 8.16406 22.1668C5.58673 22.1668 3.4974 20.0775 3.4974 17.5002C3.4974 15.5666 4.6736 13.9051 6.35416 13.1971C6.84047 12.9923 7.12872 12.4865 7.05712 11.9637C7.01779 11.6765 6.9974 11.3827 6.9974 11.0835Z" fill="#475367"/>
<path d="M13.2223 16.6282C13.6643 16.2353 14.3305 16.2353 14.7725 16.6282L16.5225 18.1837C17.0041 18.6118 17.0474 19.3492 16.6194 19.8308C16.2449 20.2521 15.6336 20.338 15.1641 20.0663V25.6668C15.1641 26.3112 14.6417 26.8335 13.9974 26.8335C13.3531 26.8335 12.8307 26.3112 12.8307 25.6668V20.0663C12.3611 20.338 11.7499 20.2521 11.3754 19.8308C10.9473 19.3492 10.9907 18.6118 11.4723 18.1837L13.2223 16.6282Z" fill="#475367"/>
</svg>
